HIERARCHY
ROOT Hips
{
	OFFSET -0.001795 -0.223333 0.028219
	CHANNELS 6 Xposition Yposition Zposition Zrotation Yrotation Xrotation 
	JOINT LeftUpLeg
	{
		OFFSET 0.069520 -0.091406 -0.006815
		CHANNELS 3 Zrotation Yrotation Xrotation
		JOINT LeftLeg
		{
			OFFSET 0.034277 -0.375199 -0.004496
			CHANNELS 3 Zrotation Yrotation Xrotation
			JOINT LeftFoot
			{
				OFFSET -0.013596 -0.397961 -0.043693
				CHANNELS 3 Zrotation Yrotation Xrotation
				JOINT LeftToe
				{
					OFFSET 0.026358 -0.055791 0.119288
					CHANNELS 3 Zrotation Yrotation Xrotation
					End Site
					{
						OFFSET 0.000000 0.000000 0.000000
					}
				}
			}
		}
	}
	JOINT RightUpLeg
	{
		OFFSET -0.067670 -0.090522 -0.004320
		CHANNELS 3 Zrotation Yrotation Xrotation
		JOINT RightLeg
		{
			OFFSET -0.038290 -0.382569 -0.008850
			CHANNELS 3 Zrotation Yrotation Xrotation
			JOINT RightFoot
			{
				OFFSET 0.015774 -0.398415 -0.042312
				CHANNELS 3 Zrotation Yrotation Xrotation
				JOINT RightToe
				{
					OFFSET -0.025372 -0.048144 0.123348
					CHANNELS 3 Zrotation Yrotation Xrotation
					End Site
					{
						OFFSET 0.000000 0.000000 0.000000
					}
				}
			}
		}
	}
	JOINT Spine
	{
		OFFSET -0.002533 0.108963 -0.026696
		CHANNELS 3 Zrotation Yrotation Xrotation
		JOINT Spine1
		{
			OFFSET 0.005487 0.135180 0.001092
			CHANNELS 3 Zrotation Yrotation Xrotation
			JOINT Spine2
			{
				OFFSET 0.001457 0.052922 0.025425
				CHANNELS 3 Zrotation Yrotation Xrotation
				JOINT Neck
				{
					OFFSET -0.002778 0.213870 -0.042857
					CHANNELS 3 Zrotation Yrotation Xrotation
					JOINT Head
					{
						OFFSET 0.005152 0.064970 0.051349
						CHANNELS 3 Zrotation Yrotation Xrotation
						End Site
						{
							OFFSET 0.000000 0.000000 0.000000
						}
					}
				}
				JOINT LeftShoulder
				{
					OFFSET 0.078845 0.121749 -0.034090
					CHANNELS 3 Zrotation Yrotation Xrotation
					JOINT LeftArm
					{
						OFFSET 0.090977 0.030469 -0.008868
						CHANNELS 3 Zrotation Yrotation Xrotation
						JOINT LeftForeArm
						{
							OFFSET 0.259612 -0.012772 -0.027456
							CHANNELS 3 Zrotation Yrotation Xrotation
							JOINT LeftHand
							{
								OFFSET 0.249234 0.008986 -0.001171
								CHANNELS 3 Zrotation Yrotation Xrotation
								End Site
								{
									OFFSET 0.000000 0.000000 0.000000
								}
							}
						}
					}
				}
				JOINT RightShoulder
				{
					OFFSET -0.081759 0.118833 -0.038615
					CHANNELS 3 Zrotation Yrotation Xrotation
					JOINT RightArm
					{
						OFFSET -0.096012 0.032551 -0.009143
						CHANNELS 3 Zrotation Yrotation Xrotation
						JOINT RightForeArm
						{
							OFFSET -0.253742 -0.013329 -0.021401
							CHANNELS 3 Zrotation Yrotation Xrotation
							JOINT RightHand
							{
								OFFSET -0.255298 0.007772 -0.005559
								CHANNELS 3 Zrotation Yrotation Xrotation
								End Site
								{
									OFFSET 0.000000 0.000000 0.000000
								}
							}
						}
					}
				}
			}
		}
	}
}
MOTION
Frames: 9
Frame Time: 0.050000
-0.081338 0.933755 0.718913 -0.313833 1.995374 6.279887 4.198536 -0.411920 -5.125288 -3.439675 0.328487 4.737930 9.280408 19.014635 1.974952 0.000000 0.000000 0.000000 3.932394 1.304363 -10.818282 1.493360 -0.038391 4.926412 -3.405318 -9.196503 2.133949 0.000000 0.000000 0.000000 9.870907 -1.273273 7.335764 7.678910 -4.427424 6.661714 -7.612557 3.852424 6.522248 11.338933 -4.548917 -19.089261 0.000000 0.000000 0.000000 -22.865999 -28.723023 12.900866 -32.537578 -26.716201 3.167497 54.767460 -36.589035 -18.349897 0.000000 0.000000 0.000000 22.316447 7.382280 4.219124 56.201696 2.224371 -4.878369 -7.827715 43.586204 -0.529354 0.000000 0.000000 0.000000 
-0.082044 0.933322 0.718233 -0.446491 2.490793 6.283562 4.604309 -0.409980 -5.096449 -3.630275 0.351741 4.340253 9.283909 19.023104 2.471839 0.000000 0.000000 0.000000 4.110341 1.307227 -10.757449 1.522166 -0.046843 4.917017 -3.702836 -9.926306 2.288830 0.000000 0.000000 0.000000 9.515742 -1.192429 6.926760 8.097896 -4.707094 6.879913 -7.904333 3.396100 6.310434 11.391739 -4.647663 -18.807929 0.000000 0.000000 0.000000 -22.309298 -28.847147 12.940691 -31.818895 -27.552727 3.259686 51.420844 -34.385995 -15.912562 0.000000 0.000000 0.000000 22.373860 7.290409 4.112419 56.376660 2.091996 -4.922703 -8.342118 43.721335 -0.742535 0.000000 0.000000 0.000000 
-0.082753 0.933313 0.716905 -0.557870 3.125531 6.323439 5.063208 -0.414885 -5.162292 -4.078002 0.406234 3.829084 9.339751 19.115073 2.792247 0.000000 0.000000 0.000000 4.319691 1.299383 -10.602275 1.328317 -0.024894 4.792071 -3.759065 -10.091056 2.504665 0.000000 0.000000 0.000000 9.337550 -1.199078 7.044953 8.133213 -4.700034 6.507560 -7.822065 2.889760 6.289867 11.438890 -4.740592 -18.605969 0.000000 0.000000 0.000000 -21.721379 -29.269636 13.187496 -31.179320 -28.837967 3.441778 47.824969 -31.766799 -13.389361 0.000000 0.000000 0.000000 22.189158 7.094365 3.913281 56.013971 2.117706 -4.863594 -7.806791 43.532859 -0.567553 0.000000 0.000000 0.000000 
-0.083349 0.933277 0.715213 -0.574655 3.278800 6.333276 5.165581 -0.426378 -5.396445 -4.366924 0.442325 3.705887 9.533915 19.460603 2.773475 0.000000 0.000000 0.000000 4.355849 1.328346 -10.801424 1.401267 -0.036609 4.817449 -3.817548 -10.227472 2.517306 0.000000 0.000000 0.000000 8.987851 -1.156146 6.967061 8.038074 -4.609398 6.173428 -7.779457 2.432612 6.427342 11.486174 -4.852924 -18.430330 0.000000 0.000000 0.000000 -20.540399 -29.102758 13.030025 -31.770958 -29.568079 3.648280 44.804161 -30.793248 -11.943917 0.000000 0.000000 0.000000 22.101306 7.001050 3.736365 55.741944 1.923481 -4.925461 -7.030631 43.668791 -0.318981 0.000000 0.000000 0.000000 
-0.083816 0.932712 0.713466 -0.611018 3.218588 6.154057 5.414026 -0.419292 -5.361838 -4.570186 0.470040 3.677734 9.518222 19.419194 2.488269 0.000000 0.000000 0.000000 4.434425 1.293892 -10.495057 1.301783 -0.025199 4.644076 -3.616531 -9.786150 2.660273 0.000000 0.000000 0.000000 8.873028 -1.158542 7.133831 7.700232 -4.416614 6.103294 -7.674370 2.186731 6.534657 11.263767 -4.808490 -18.167703 0.000000 0.000000 0.000000 -20.084789 -28.858240 12.901337 -32.978709 -29.557287 3.812972 43.384513 -31.254880 -11.645402 0.000000 0.000000 0.000000 21.856160 6.789410 3.513972 55.765672 2.011520 -4.878507 -6.319260 43.891770 -0.070952 0.000000 0.000000 0.000000 
-0.083945 0.932463 0.711850 -0.669304 2.989711 6.065466 5.223194 -0.422427 -5.462025 -4.705504 0.492063 3.914066 9.525581 19.412018 1.847812 0.000000 0.000000 0.000000 4.402055 1.282944 -10.421621 1.297576 -0.019893 4.771950 -3.336034 -9.105222 2.532736 0.000000 0.000000 0.000000 9.014025 -1.191829 7.330482 7.251963 -4.118816 5.731915 -7.805329 2.038683 6.617386 11.324096 -4.897046 -18.040318 0.000000 0.000000 0.000000 -19.837843 -28.491991 12.717051 -35.153079 -28.099665 3.743166 42.240571 -33.151901 -11.985358 0.000000 0.000000 0.000000 21.697580 6.642917 3.356620 55.401603 1.612011 -5.026856 -5.546559 44.382377 0.204620 0.000000 0.000000 0.000000 
-0.083684 0.931632 0.710262 -0.535161 2.803863 5.886205 5.063795 -0.425243 -5.563508 -4.948967 0.529569 4.191577 9.712213 19.748213 1.448397 0.000000 0.000000 0.000000 4.191363 1.245837 -10.220607 1.090221 0.013521 4.799273 -2.858303 -7.881920 2.147342 0.000000 0.000000 0.000000 8.971494 -1.185888 7.386868 6.888348 -3.936418 5.868041 -8.024912 2.139579 6.668536 11.394303 -5.001174 -17.725096 0.000000 0.000000 0.000000 -20.218505 -28.034735 12.483917 -37.506049 -25.973396 3.475430 41.889157 -36.079839 -13.007381 0.000000 0.000000 0.000000 21.459023 6.225386 3.125850 55.474236 1.635105 -5.028361 -5.394060 44.763684 0.297903 0.000000 0.000000 0.000000 
-0.082997 0.931425 0.708585 -0.398000 2.891000 5.820628 4.673055 -0.439483 -5.736021 -4.907640 0.523821 4.390437 9.510575 19.336080 0.768802 0.000000 0.000000 0.000000 4.124919 1.266964 -10.402496 0.735444 0.081326 5.293510 -2.834536 -7.817152 2.125784 0.000000 0.000000 0.000000 9.083102 -1.218049 7.563519 6.617492 -3.778743 5.753620 -8.366917 2.313756 6.788150 11.581889 -5.103102 -17.667229 0.000000 0.000000 0.000000 -20.434892 -27.297070 11.983909 -40.186633 -23.711147 3.114143 41.047213 -38.996523 -13.870742 0.000000 0.000000 0.000000 21.402318 5.763759 2.943921 55.055901 1.306928 -5.167366 -5.060148 45.539411 0.492033 0.000000 0.000000 0.000000 
-0.081937 0.931312 0.706677 -0.129616 3.251094 5.676617 4.065369 -0.468902 -6.069897 -4.958930 0.528047 4.862158 9.570298 19.408129 0.451807 0.000000 0.000000 0.000000 3.960386 1.294572 -10.671724 0.409534 0.153092 6.032311 -2.954414 -7.992598 1.727595 0.000000 0.000000 0.000000 9.060135 -1.217968 7.593131 6.329004 -3.617294 5.590888 -8.529033 2.526363 7.128871 11.771818 -5.095429 -18.111778 0.000000 0.000000 0.000000 -20.996280 -26.565374 11.496718 -42.541043 -21.788887 2.726656 40.227177 -40.776943 -14.294577 0.000000 0.000000 0.000000 21.652573 5.170347 2.739381 54.646905 1.039648 -5.320594 -5.384280 45.943889 0.450317 0.000000 0.000000 0.000000 
